<svg width="112" height="20" viewBox="0 0 112 20" fill="none" xmlns="http://www.w3.org/2000/svg">
<path d="M112 0H17C25.2262 8.63739 25.066 12.9998 17 20H112L104.377 10.5L112 0Z" fill="url(#paint0_linear_5_153)"/>
<circle cx="10" cy="10" r="10" fill="url(#paint1_linear_5_153)"/>
<path d="M37.6475 5.89062V13H36.4316V5.89062H37.6475ZM39.8789 5.89062V6.86719H34.2197V5.89062H39.8789ZM46.3486 9.25V9.64062C46.3486 10.1777 46.2786 10.6595 46.1387 11.0859C45.9987 11.5124 45.7985 11.8753 45.5381 12.1748C45.2809 12.4743 44.9717 12.7038 44.6104 12.8633C44.249 13.0195 43.8486 13.0977 43.4092 13.0977C42.973 13.0977 42.5742 13.0195 42.2129 12.8633C41.8548 12.7038 41.5439 12.4743 41.2803 12.1748C41.0166 11.8753 40.8115 11.5124 40.665 11.0859C40.5218 10.6595 40.4502 10.1777 40.4502 9.64062V9.25C40.4502 8.71289 40.5218 8.23275 40.665 7.80957C40.8083 7.38314 41.0101 7.02018 41.2705 6.7207C41.5342 6.41797 41.8451 6.18848 42.2031 6.03223C42.5645 5.87272 42.9632 5.79297 43.3994 5.79297C43.8389 5.79297 44.2393 5.87272 44.6006 6.03223C44.9619 6.18848 45.2728 6.41797 45.5332 6.7207C45.7936 7.02018 45.9938 7.38314 46.1338 7.80957C46.277 8.23275 46.3486 8.71289 46.3486 9.25ZM45.123 9.64062V9.24023C45.123 8.8431 45.084 8.49316 45.0059 8.19043C44.931 7.88444 44.8187 7.62891 44.6689 7.42383C44.5225 7.21549 44.3418 7.05924 44.127 6.95508C43.9121 6.84766 43.6696 6.79395 43.3994 6.79395C43.1292 6.79395 42.8883 6.84766 42.6768 6.95508C42.4652 7.05924 42.2845 7.21549 42.1348 7.42383C41.9883 7.62891 41.876 7.88444 41.7979 8.19043C41.7197 8.49316 41.6807 8.8431 41.6807 9.24023V9.64062C41.6807 10.0378 41.7197 10.3893 41.7979 10.6953C41.876 11.0013 41.9899 11.2601 42.1396 11.4717C42.2926 11.68 42.4749 11.8379 42.6865 11.9453C42.8981 12.0495 43.139 12.1016 43.4092 12.1016C43.6826 12.1016 43.9251 12.0495 44.1367 11.9453C44.3483 11.8379 44.5273 11.68 44.6738 11.4717C44.8203 11.2601 44.931 11.0013 45.0059 10.6953C45.084 10.3893 45.123 10.0378 45.123 9.64062ZM50.2744 10.3486H48.4238V9.37695H50.2744C50.5967 9.37695 50.8571 9.32487 51.0557 9.2207C51.2542 9.11654 51.3991 8.97331 51.4902 8.79102C51.5846 8.60547 51.6318 8.39388 51.6318 8.15625C51.6318 7.93164 51.5846 7.72168 51.4902 7.52637C51.3991 7.3278 51.2542 7.16829 51.0557 7.04785C50.8571 6.92741 50.5967 6.86719 50.2744 6.86719H48.7998V13H47.5742V5.89062H50.2744C50.8245 5.89062 51.2917 5.98828 51.6758 6.18359C52.0632 6.37565 52.3577 6.64258 52.5596 6.98438C52.7614 7.32292 52.8623 7.71029 52.8623 8.14648C52.8623 8.60547 52.7614 8.99935 52.5596 9.32812C52.3577 9.6569 52.0632 9.90918 51.6758 10.085C51.2917 10.2607 50.8245 10.3486 50.2744 10.3486ZM60.1914 11.1689C60.1914 11.0225 60.1686 10.8923 60.123 10.7783C60.0807 10.6644 60.0042 10.5602 59.8936 10.4658C59.7829 10.3714 59.6266 10.2803 59.4248 10.1924C59.2262 10.1012 58.9723 10.0085 58.6631 9.91406C58.3245 9.8099 58.012 9.69434 57.7256 9.56738C57.4424 9.43717 57.195 9.28743 56.9834 9.11816C56.7718 8.94564 56.6074 8.7487 56.4902 8.52734C56.373 8.30273 56.3145 8.04395 56.3145 7.75098C56.3145 7.46126 56.3747 7.19759 56.4951 6.95996C56.6188 6.72233 56.793 6.51725 57.0176 6.34473C57.2454 6.16895 57.514 6.03385 57.8232 5.93945C58.1325 5.8418 58.4743 5.79297 58.8486 5.79297C59.376 5.79297 59.8301 5.89062 60.2109 6.08594C60.5951 6.28125 60.8896 6.54329 61.0947 6.87207C61.3031 7.20085 61.4072 7.5638 61.4072 7.96094H60.1914C60.1914 7.72656 60.141 7.51986 60.04 7.34082C59.9424 7.15853 59.7926 7.0153 59.5908 6.91113C59.3923 6.80697 59.14 6.75488 58.834 6.75488C58.5443 6.75488 58.3034 6.79883 58.1113 6.88672C57.9193 6.97461 57.776 7.09342 57.6816 7.24316C57.5872 7.3929 57.54 7.56217 57.54 7.75098C57.54 7.88444 57.571 8.00651 57.6328 8.11719C57.6947 8.22461 57.7891 8.32552 57.916 8.41992C58.043 8.51107 58.2025 8.59733 58.3945 8.67871C58.5866 8.76009 58.8128 8.83822 59.0732 8.91309C59.4671 9.03027 59.8105 9.16048 60.1035 9.30371C60.3965 9.44368 60.6406 9.60319 60.8359 9.78223C61.0312 9.96126 61.1777 10.1647 61.2754 10.3926C61.373 10.6172 61.4219 10.8727 61.4219 11.1592C61.4219 11.4587 61.3617 11.7288 61.2412 11.9697C61.1208 12.2074 60.9482 12.4108 60.7236 12.5801C60.5023 12.7461 60.2354 12.8747 59.9229 12.9658C59.6136 13.0537 59.2686 13.0977 58.8877 13.0977C58.5459 13.0977 58.209 13.0521 57.877 12.9609C57.5482 12.8698 57.2487 12.7314 56.9785 12.5459C56.7083 12.3571 56.4935 12.1227 56.334 11.8428C56.1745 11.5596 56.0947 11.2292 56.0947 10.8516H57.3203C57.3203 11.0827 57.3594 11.2796 57.4375 11.4424C57.5189 11.6051 57.6312 11.7386 57.7744 11.8428C57.9176 11.9437 58.0837 12.0186 58.2725 12.0674C58.4645 12.1162 58.6696 12.1406 58.8877 12.1406C59.1742 12.1406 59.4134 12.0999 59.6055 12.0186C59.8008 11.9372 59.9473 11.8232 60.0449 11.6768C60.1426 11.5303 60.1914 11.361 60.1914 11.1689ZM67.1592 12.0283V13H63.3848V12.0283H67.1592ZM63.7314 5.89062V13H62.5059V5.89062H63.7314ZM66.666 8.85938V9.81641H63.3848V8.85938H66.666ZM67.1348 5.89062V6.86719H63.3848V5.89062H67.1348ZM72.6133 12.0283V13H69.0439V12.0283H72.6133ZM69.3857 5.89062V13H68.1602V5.89062H69.3857ZM78.0137 12.0283V13H74.4443V12.0283H78.0137ZM74.7861 5.89062V13H73.5605V5.89062H74.7861ZM80.2695 5.89062V13H79.0439V5.89062H80.2695ZM87.4326 5.89062V13H86.207L83.0186 7.90723V13H81.793V5.89062H83.0186L86.2168 10.9932V5.89062H87.4326ZM94.3516 9.36719V12.082C94.2507 12.2155 94.0928 12.362 93.8779 12.5215C93.6663 12.6777 93.3848 12.8128 93.0332 12.9268C92.6816 13.0407 92.2438 13.0977 91.7197 13.0977C91.2738 13.0977 90.8652 13.0228 90.4941 12.873C90.123 12.7201 89.8024 12.4971 89.5322 12.2041C89.2653 11.9111 89.0586 11.5547 88.9121 11.1348C88.7656 10.7116 88.6924 10.2298 88.6924 9.68945V9.19629C88.6924 8.65918 88.7591 8.18066 88.8926 7.76074C89.0293 7.33757 89.2246 6.97949 89.4785 6.68652C89.7324 6.39355 90.0384 6.1722 90.3965 6.02246C90.7578 5.86947 91.1663 5.79297 91.6221 5.79297C92.2048 5.79297 92.6865 5.89062 93.0674 6.08594C93.4515 6.27799 93.7477 6.54492 93.9561 6.88672C94.1644 7.22852 94.2962 7.61914 94.3516 8.05859H93.1504C93.1113 7.8112 93.0348 7.58984 92.9209 7.39453C92.8102 7.19922 92.6507 7.04622 92.4424 6.93555C92.2373 6.82161 91.9704 6.76465 91.6416 6.76465C91.3584 6.76465 91.1094 6.81836 90.8945 6.92578C90.6797 7.0332 90.5007 7.19108 90.3574 7.39941C90.2174 7.60775 90.1117 7.86165 90.04 8.16113C89.9684 8.46061 89.9326 8.80241 89.9326 9.18652V9.68945C89.9326 10.0801 89.9733 10.4268 90.0547 10.7295C90.1393 11.0322 90.2598 11.2878 90.416 11.4961C90.5755 11.7044 90.7692 11.8623 90.9971 11.9697C91.2249 12.0739 91.4821 12.126 91.7686 12.126C92.0485 12.126 92.278 12.1032 92.457 12.0576C92.6361 12.0088 92.7777 11.9518 92.8818 11.8867C92.9893 11.8184 93.0723 11.7533 93.1309 11.6914V10.2803H91.6514V9.36719H94.3516Z" fill="#4E4B66"/>
<g clip-path="url(#clip0_5_153)">
<path d="M14.2454 8.69885C14.2454 9.82549 13.7979 10.906 13.0012 11.7026C12.2046 12.4993 11.1241 12.9469 9.99742 12.9469C8.87078 12.9469 7.79029 12.4993 6.99363 11.7026C6.19698 10.906 5.74942 9.82549 5.74942 8.69885C5.74942 7.57221 6.19698 6.49172 6.99363 5.69506C7.79029 4.89841 8.87078 4.45085 9.99742 4.45085C11.1241 4.45085 12.2046 4.89841 13.0012 5.69506C13.7979 6.49172 14.2454 7.57221 14.2454 8.69885Z" stroke="black" stroke-width="0.857143" stroke-linecap="round" stroke-linejoin="round"/>
<path d="M6.3177 10.7826L4.42856 14.0551L6.46942 13.5083L7.01713 15.5491L8.65599 12.7103M13.6823 10.7826L15.5714 14.0551L13.5297 13.5083L12.9828 15.5491L11.344 12.7103M10.1714 6.39228L10.7568 7.56999C10.7699 7.59971 10.7905 7.62543 10.8167 7.64456C10.8429 7.66368 10.8737 7.67551 10.906 7.67885L12.2063 7.87599C12.2435 7.88075 12.2786 7.89603 12.3074 7.92002C12.3362 7.94402 12.3576 7.97575 12.369 8.01148C12.3805 8.04721 12.3815 8.08546 12.3719 8.12173C12.3624 8.15801 12.3427 8.19081 12.3151 8.21628L11.3543 9.12828C11.34 9.15552 11.3326 9.18581 11.3326 9.21657C11.3326 9.24732 11.34 9.27761 11.3543 9.30485L11.5386 10.5974C11.5466 10.6349 11.5435 10.6739 11.5297 10.7096C11.5159 10.7453 11.492 10.7763 11.4609 10.7986C11.4298 10.821 11.3928 10.8338 11.3546 10.8355C11.3163 10.8372 11.2784 10.8278 11.2454 10.8083L10.0883 10.1963C10.0584 10.1828 10.0259 10.1758 9.99313 10.1758C9.96032 10.1758 9.92789 10.1828 9.89799 10.1963L8.74084 10.8083C8.70791 10.8273 8.67019 10.8363 8.63223 10.8343C8.59427 10.8324 8.55769 10.8194 8.52689 10.7972C8.4961 10.7749 8.4724 10.7442 8.45865 10.7087C8.44491 10.6733 8.4417 10.6346 8.44942 10.5974L8.66713 9.30485C8.67642 9.27487 8.67815 9.24307 8.67217 9.21226C8.66618 9.18145 8.65268 9.1526 8.63284 9.12828L7.6737 8.20857C7.64793 8.18279 7.6298 8.15037 7.62135 8.11491C7.61289 8.07944 7.61443 8.04233 7.6258 8.0077C7.63717 7.97306 7.65792 7.94225 7.68574 7.9187C7.71357 7.89515 7.74738 7.87977 7.78342 7.87428L9.08284 7.68571C9.11511 7.68237 9.14591 7.67054 9.17211 7.65141C9.19831 7.63229 9.21897 7.60656 9.23199 7.57685L9.81742 6.39914C9.833 6.36571 9.85765 6.33732 9.88856 6.31721C9.91947 6.29709 9.9554 6.28604 9.99228 6.28533C10.0292 6.28462 10.0655 6.29426 10.0972 6.31317C10.1288 6.33207 10.1545 6.35948 10.1714 6.39228Z" stroke="black" stroke-width="0.857143" stroke-linecap="round" stroke-linejoin="round"/>
</g>
<defs>
<linearGradient id="paint0_linear_5_153" x1="106.136" y1="10" x2="-2.34114" y2="7.93688" gradientUnits="userSpaceOnUse">
<stop stop-color="#CAEAFB"/>
<stop offset="1" stop-color="#FBDBCA"/>
</linearGradient>
<linearGradient id="paint1_linear_5_153" x1="0" y1="10" x2="24" y2="10" gradientUnits="userSpaceOnUse">
<stop stop-color="#CAEAFB"/>
<stop offset="1" stop-color="#FBDBCA"/>
</linearGradient>
<clipPath id="clip0_5_153">
<rect width="12" height="12" fill="white" transform="translate(4 4)"/>
</clipPath>
</defs>
</svg>
